# xmcd
#
# Track frame offsets:
#	150
#	10543
#	27023
#	41108
#	56187
#	73837
#	88273
#	105074
#	119814
#	133476
#	147994
#	159025
#	174462
#	187878
#	197731
#	212658
#	226688
#
# Disc length: 3258 seconds
#
# Revision: 1
# Processed by: cddbd v1.5.2PL0 Copyright (c) Steve Scherf et al.
# Submitted via: audiograbber 1.83.01
#
DISCID=e80cb811
DTITLE=Dark Horses - Mel-odies and Wagon Trains Dark Horses
DYEAR=1900
DGENRE=
TTITLE0=Nothhing Can Stop Me - Mark La Forme
TTITLE1=If Wishes Were Horses  - Linsay Thomas Morgan
TTITLE2=Without Your Love - Scott Van Teeffelen
TTITLE3=Been Down That Road Before  - North Starr
TTITLE4=Let Em Cheat With You - Dean Holmen
TTITLE5=Texas Plains - Wayne Austin
TTITLE6=Broken Vessels - Jim Fullen
TTITLE7=Dance Hall Girl  - Grant Tingey
TTITLE8=The Silence  - Lamar Smyly
TTITLE9=Smoke, Smoke, Smoke  - Eddie Rivers
TTITLE10=What A Way To Part  - Ian Betterridge
TTITLE11=Know When To Walk Away  - Ronnie Jay Wheeler 
TTITLE12=The Frence Song - Lilian And Manon
TTITLE13=It´s Such A Pretty World Today  - Tony Western
TTITLE14=Wher Do Promises Go  - Christina Saunders
TTITLE15=No One, Ever Gets Me Over You  - Randall Cousins
TTITLE16=Almost Persuaded - Manon´s Dream
EXTD=
EXTT0=
EXTT1=
EXTT2=
EXTT3=
EXTT4=
EXTT5=
EXTT6=
EXTT7=
EXTT8=
EXTT9=
EXTT10=
EXTT11=
EXTT12=
EXTT13=
EXTT14=
EXTT15=
EXTT16=
PLAYORDER=
